<mxfile host="app.diagrams.net" modified="2024-01-18T06:51:29.653Z" agent="Mozilla/5.0 (X11; Linux x86_64) AppleWebKit/537.36 (KHTML, like Gecko) Chrome/120.0.0.0 Safari/537.36" version="22.1.21" etag="FYWbM7QNAHr4z-YxsiFO" type="github">
  <diagram name="第 1 页" id="XS916x9B2SUih1WPZ4Aq">
    <mxGraphModel>
      <root>
        <mxCell id="0" />
        <mxCell id="1" parent="0" />
      </root>
    </mxGraphModel>
  </diagram>
</mxfile>
